# xmcd
#
# Track frame offsets:
#	150
#	12367
#	23301
#	35128
#	48892
#	69765
#	79022
#	92792
#	104044
#	113614
#	125158
#	143660
#	156459
#	170619
#	182142
#	194251
#	208279
#	219898
#	232993
#	246674
#	260221
#	273756
#	286515
#	300613
#	313315
#	324046
#	338162
#	349963
#	358009
#	372421
#	382720
#
# Disc length: 5217 seconds
# Revision: 1
# Processed by: cddbd v1.5.2PL0 Copyright (c) Steve Scherf et al.
# Submitted via: dBpowerAMP V12.0
#
DISCID=ce145f1f
DTITLE=Hank Snow - Snow Under Western Skies
DYEAR=2008
DGENRE=Country
TTITLE0=The Man Who Robbed The Bank At Santa Fe
TTITLE1=The Man Behind The Gun
TTITLE2=(Town Of) Laredo
TTITLE3=The Queen Of Draw Poker Town
TTITLE4=El Paso
TTITLE5='Cross The Brazos At Waco
TTITLE6=Patanio, The Pride Of The Plains
TTITLE7=Cowhand's Last Ride
TTITLE8=Ridin' Home
TTITLE9=Heart Break Trail
TTITLE10=Cool Water
TTITLE11=Tumbling Tumbleweeds
TTITLE12=Texas Plains
TTITLE13=Chant Of The Wanderer
TTITLE14=On The Rhythm Range
TTITLE15=Following The Sun All Day
TTITLE16=The Wayward Wind
TTITLE17=Patanio, The Pride Of The Plains
TTITLE18=Prisoned Cowboy
TTITLE19=The Texas Cowboy
TTITLE20=Riding Along, Singing A Song
TTITLE21=Blue Ranger
TTITLE22=My Sweet Texas Bluebonnet Queen
TTITLE23=Out On The Open Range
TTITLE24=Yodeling Ranger
TTITLE25=Yodeling Cowboy
TTITLE26=San Antonio Rose
TTITLE27=I'm Coming Home/Song Of The Saddle
TTITLE28=That Pioneer Mother Of Mine
TTITLE29=Texas Plains
TTITLE30=Chant Of The Wanderer
EXTD=
EXTT0=
EXTT1=
EXTT2=
EXTT3=
EXTT4=
EXTT5=
EXTT6=
EXTT7=
EXTT8=
EXTT9=
EXTT10=
EXTT11=
EXTT12=
EXTT13=
EXTT14=
EXTT15=
EXTT16=
EXTT17=
EXTT18=
EXTT19=
EXTT20=
EXTT21=
EXTT22=
EXTT23=
EXTT24=
EXTT25=
EXTT26=
EXTT27=
EXTT28=
EXTT29=
EXTT30=
PLAYORDER=
